<?xml version="1.0" encoding="UTF-8"?>
<svg version="1.1" xmlns="http://www.w3.org/2000/svg" width="128" height="128">
<path d="M0 0 C42.24 0 84.48 0 128 0 C128 42.24 128 84.48 128 128 C85.76 128 43.52 128 0 128 C0 85.76 0 43.52 0 0 Z " fill="#FAE7E5" transform="translate(0,0)"/>
<path d="M0 0 C42.24 0 84.48 0 128 0 C128 20.13 128 40.26 128 61 C126.68 61.99 125.36 62.98 124 64 C124.99 56.74 125.98 49.48 127 42 C123.535 42.495 123.535 42.495 120 43 C117.91753011 43.06348994 115.83329882 43.08653806 113.75 43.0625 C112.22632812 43.04896484 112.22632812 43.04896484 110.671875 43.03515625 C109.79015625 43.02355469 108.9084375 43.01195312 108 43 C107.01 43 106.02 43 105 43 C102.91015625 42.734375 102.91015625 42.734375 101 42 C100.05859375 40.390625 100.05859375 40.390625 99.4375 38.25 C99.20289062 37.45207031 98.96828125 36.65414062 98.7265625 35.83203125 C97.3786112 30.57792 96.15494759 25.29965313 95 20 C91.04 20.495 91.04 20.495 87 21 C86.96261719 21.59425781 86.92523438 22.18851563 86.88671875 22.80078125 C86.23725011 30.98917995 85.13168563 42.86831437 79 49 C77.55432923 49.20453522 76.09989866 49.34777816 74.64453125 49.46484375 C73.72260986 49.5417041 72.80068848 49.61856445 71.85083008 49.69775391 C70.84818115 49.77687012 69.84553223 49.85598633 68.8125 49.9375 C66.70828049 50.11003379 64.60411501 50.28322772 62.5 50.45703125 C61.42105469 50.54549316 60.34210937 50.63395508 59.23046875 50.72509766 C55.19080327 51.06886 51.15671724 51.46089205 47.12182617 51.85620117 C43.52700812 52.20015656 39.92976597 52.50657253 36.33056641 52.80078125 C34.2739766 52.97658025 32.22055629 53.18864643 30.16796875 53.40625 C23.15287848 53.89064588 23.15287848 53.89064588 20.09375 51.52734375 C14.24538056 44.31722162 11.41224348 34.69166287 8.75 25.9375 C8.481875 25.07189453 8.21375 24.20628906 7.9375 23.31445312 C7.28673817 21.21109793 6.64099278 19.10634852 6 17 C5.88058004 29.71159085 6.14214576 42.31601228 7 55 C3.535 55.495 3.535 55.495 0 56 C0 37.52 0 19.04 0 0 Z " fill="#A58699" transform="translate(0,0)"/>
<path d="M0 0 C1.32 1.65 2.64 3.3 4 5 C5.00933594 5.48339844 5.00933594 5.48339844 6.0390625 5.9765625 C9.64287419 7.85743633 11.06931234 11.83751127 13.0234375 15.2734375 C17.00856024 20.77070168 22.40205185 22.78910261 28.75 24.5625 C29.48516846 24.77156982 30.22033691 24.98063965 30.9777832 25.19604492 C39.22065629 27.45409152 47.5180407 28.98580869 56 30 C57.11117187 30.14050781 58.22234375 30.28101562 59.3671875 30.42578125 C80.89859044 31.76820368 105.62996614 20.42042856 124 10 C125.32 9.34 126.64 8.68 128 8 C128 18.56 128 29.12 128 40 C85.76 40 43.52 40 0 40 C0 26.8 0 13.6 0 0 Z " fill="#3C2B3E" transform="translate(0,88)"/>
<path d="M0 0 C0 10.56 0 21.12 0 32 C-21.78 32 -43.56 32 -66 32 C-62 30 -62 30 -58 30 C-58 27.36 -58 24.72 -58 22 C-57.32646484 21.81937012 -56.65292969 21.63874023 -55.95898438 21.45263672 C-41.42077857 17.53069061 -13.40069453 0 0 0 Z " fill="#875567" transform="translate(128,96)"/>
<path d="M0 0 C0 10.56 0 21.12 0 32 C-9.57 32 -19.14 32 -29 32 C-27.35 30.35 -25.7 28.7 -24 27 C-22.70480005 24.83379456 -22.70480005 24.83379456 -22 23 C-21.2575 23.433125 -21.2575 23.433125 -20.5 23.875 C-16.03438848 25.88452518 -11.74230374 27.58076791 -7 26 C-7.804375 25.71125 -8.60875 25.4225 -9.4375 25.125 C-12 24 -12 24 -13 22 C-14.97522846 20.95191959 -16.97481509 19.9479589 -19 19 C-19 15 -19 15 -17 12.5625 C-14.0011273 10.00096291 -10.99256983 8.05308492 -7.57421875 6.11328125 C-7.05472656 5.74589844 -6.53523438 5.37851563 -6 5 C-6 4.34 -6 3.68 -6 3 C-1.5 0 -1.5 0 0 0 Z " fill="#A5637A" transform="translate(128,96)"/>
<path d="M0 0 C4.31686533 1.99507303 6.69518911 3.82000109 8.5 8.375 C8.76517489 13.73532097 7.73417725 18.01589153 4.5 22.375 C2.96554906 19.30609813 3.95015711 16.67405734 4.5 13.375 C3.18 14.365 1.86 15.355 0.5 16.375 C0.5 14.395 0.5 12.415 0.5 10.375 C-1.48 9.715 -3.46 9.055 -5.5 8.375 C-5.83 9.035 -6.16 9.695 -6.5 10.375 C-6.83 10.045 -7.16 9.715 -7.5 9.375 C-11.40532683 9.75293485 -14.7815754 10.13552513 -18.5 11.375 C-18.17 13.355 -17.84 15.335 -17.5 17.375 C-18.82 16.715 -20.14 16.055 -21.5 15.375 C-21.83 16.695 -22.16 18.015 -22.5 19.375 C-24.94064587 13.73100642 -24.69289099 8.39748522 -24.5 2.375 C-16.91649211 -3.14027847 -8.73384179 -3.07039047 0 0 Z " fill="#8C566D" transform="translate(109.5,52.625)"/>
<path d="M0 0 C1.65 0 3.3 0 5 0 C5.11069824 0.54414551 5.22139648 1.08829102 5.33544922 1.64892578 C5.84482619 4.14174567 6.35986694 6.6333635 6.875 9.125 C7.04902344 9.9809375 7.22304687 10.836875 7.40234375 11.71875 C8.16244003 15.37847282 8.94243634 18.83784356 10.1953125 22.3671875 C11 25 11 25 10 29 C8.68 25.04 7.36 21.08 6 17 C5.88058004 29.71159085 6.14214576 42.31601228 7 55 C3.535 55.495 3.535 55.495 0 56 C0 37.52 0 19.04 0 0 Z " fill="#8A6B7A" transform="translate(0,0)"/>
<path d="M0 0 C4.56054585 0.23189216 7.13620348 0.44213141 11 2.9375 C13.82737988 7.26692544 13.43945277 10.97070719 13 16 C12.01 16 11.02 16 10 16 C9.34 16.66 8.68 17.32 8 18 C8 15.69 8 13.38 8 11 C0.25661364 10.61041465 0.25661364 10.61041465 -7 13 C-7 14.98 -7 16.96 -7 19 C-8.32 18.34 -9.64 17.68 -11 17 C-10.01 19.97 -9.02 22.94 -8 26 C-12.02864919 22.6659455 -13.85315784 19.01978455 -15 14 C-14.93064977 9.90833625 -14.3799079 7.64725049 -12.3125 4.125 C-9.53709485 1.5746277 -7.70741251 1.25277813 -4 1 C-3.67 2.32 -3.34 3.64 -3 5 C-1.68 5 -0.36 5 1 5 C0.67 3.35 0.34 1.7 0 0 Z " fill="#844661" transform="translate(25,60)"/>
<path d="M0 0 C0.66 0.33 1.32 0.66 2 1 C-0.27575921 3.53187359 -2.51979208 4.88121588 -5.5625 6.375 C-9.24781254 8.34274595 -9.24781254 8.34274595 -11.5625 11.8125 C-11.706875 12.534375 -11.85125 13.25625 -12 14 C-8.535 15.98 -8.535 15.98 -5 18 C-5 18.66 -5 19.32 -5 20 C-4.236875 20.12375 -3.47375 20.2475 -2.6875 20.375 C0 21 0 21 3 23 C-4.66670345 24.47953926 -8.42984524 23.38010317 -15 19 C-15.061875 19.5775 -15.12375 20.155 -15.1875 20.75 C-16.32027301 23.88690987 -18.34197595 25.09167504 -21 27 C-21.66 26.67 -22.32 26.34 -23 26 C-21.68 24.68 -20.36 23.36 -19 22 C-19.515625 21.0925 -20.03125 20.185 -20.5625 19.25 C-22.07116812 15.83909817 -22.06527892 15.31420108 -21 12 C-21.66 11.34 -22.32 10.68 -23 10 C-22.14341797 9.67128906 -22.14341797 9.67128906 -21.26953125 9.3359375 C-14.93071154 6.85684426 -8.80684765 4.05451425 -2.6875 1.07421875 C-1.800625 0.71972656 -0.91375 0.36523438 0 0 Z " fill="#5C3643" transform="translate(121,100)"/>
<path d="M0 0 C1.65 0 3.3 0 5 0 C5.35210593 16.15774973 5.1974162 33.55693336 -3 48 C-4.32 47.67 -5.64 47.34 -7 47 C-5.625 45 -5.625 45 -4 43 C-3.34 43 -2.68 43 -2 43 C-2.01047363 42.40799805 -2.02094727 41.81599609 -2.03173828 41.20605469 C-2.24313073 27.31837349 -1.69125959 13.78678574 0 0 Z " fill="#7D5F6A" transform="translate(83,0)"/>
<path d="M0 0 C0.33 0 0.66 0 1 0 C1 5.28 1 10.56 1 16 C-8.57 16 -18.14 16 -28 16 C-26.35 14.35 -24.7 12.7 -23 11 C-21.70480005 8.83379456 -21.70480005 8.83379456 -21 7 C-20.505 7.28875 -20.01 7.5775 -19.5 7.875 C-15.03438848 9.88452518 -10.74230374 11.58076791 -6 10 C-7.65 9.34 -9.3 8.68 -11 8 C-11 7.34 -11 6.68 -11 6 C-6.545 5.505 -6.545 5.505 -2 5 C-1.34 3.35 -0.68 1.7 0 0 Z " fill="#7C5062" transform="translate(127,112)"/>
<path d="M0 0 C2.97 0 5.94 0 9 0 C8.95746094 1.14855469 8.91492187 2.29710938 8.87109375 3.48046875 C8.87009559 8.01109605 9.82278914 11.97964916 11.0625 16.3125 C13.13169643 23.60491071 13.13169643 23.60491071 12 27 C11.28385417 25.27473958 10.56770833 23.54947917 9.8515625 21.82421875 C8.93193308 19.73466068 8.93193308 19.73466068 7 17 C7.13277344 17.59167969 7.26554687 18.18335937 7.40234375 18.79296875 C8.31005178 22.85446525 9.2091113 26.91374171 10 31 C7.06647451 27.61318923 5.76517717 23.95613548 4.4375 19.75 C4.22134033 19.08121826 4.00518066 18.41243652 3.7824707 17.72338867 C0 5.88680196 0 5.88680196 0 0 Z " fill="#8C6E82" transform="translate(22,0)"/>
<path d="M0 0 C2.64 0 5.28 0 8 0 C7.95875 1.155 7.9175 2.31 7.875 3.5 C7.86404167 6.59024824 8.20337484 9.26546066 9 12.25 C10 16 10 16 10 20 C9 20 8 20 7 20 C3.04 20.495 3.04 20.495 -1 21 C-0.67 14.07 -0.34 7.14 0 0 Z " fill="#917482" transform="translate(88,0)"/>
<path d="M0 0 C5.24009642 -0.31440578 8.59229224 0.06152816 13 3 C15.46210691 5.65149975 16.91716985 7.53235325 17.125 11.21484375 C16.7575537 15.81557768 15.79885063 19.22763611 13 23 C11.46554906 19.93109813 12.45015711 17.29905734 13 14 C11.68 14.99 10.36 15.98 9 17 C9 15.02 9 13.04 9 11 C7.02 10.34 5.04 9.68 3 9 C2.67 9.66 2.34 10.32 2 11 C0.02 10.34 -1.96 9.68 -4 9 C-0.17482487 6.60926555 3.59665524 6.44033448 8 6 C5.36 6 2.72 6 0 6 C0 4.02 0 2.04 0 0 Z " fill="#985F78" transform="translate(101,52)"/>
<path d="M0 0 C0.66 0 1.32 0 2 0 C4.00212229 0.32033957 6.00239695 0.65259077 8 1 C8.33 2.65 8.66 4.3 9 6 C8.67 5.01 8.34 4.02 8 3 C6.07690578 3.03955898 6.07690578 3.03955898 4 4 C3.505 4.99 3.01 5.98 2.5 7 C1 10 1 10 -1 11.0625 C-3 11 -3 11 -4.75 9.6875 C-6 8 -6 8 -6 6 C-6.99 6.495 -6.99 6.495 -8 7 C-8 8.32 -8 9.64 -8 11 C-8.66 11 -9.32 11 -10 11 C-10.33 12.65 -10.66 14.3 -11 16 C-13.0625 14.3125 -13.0625 14.3125 -15 12 C-14.75 9.25 -14.75 9.25 -14 7 C-13.01 7 -12.02 7 -11 7 C-11 5.68 -11 4.36 -11 3 C-7.12549842 0.83748749 -4.45588642 -0.37132387 0 0 Z " fill="#E9B6D0" transform="translate(102,61)"/>
<path d="M0 0 C-4.02561348 4.38081466 -7.73302438 7.78693637 -13.875 8.1875 C-14.57625 8.125625 -15.2775 8.06375 -16 8 C-16 8.66 -16 9.32 -16 10 C-17.79158489 10.02696365 -19.58328473 10.04637917 -21.375 10.0625 C-22.37273437 10.07410156 -23.37046875 10.08570312 -24.3984375 10.09765625 C-27 10 -27 10 -29 9 C-29 8.34 -29 7.68 -29 7 C-27.02 6.67 -25.04 6.34 -23 6 C-23 5.34 -23 4.68 -23 4 C-19.92452896 2.93403924 -16.83880623 1.90161339 -13.75 0.875 C-12.87730469 0.57207031 -12.00460938 0.26914063 -11.10546875 -0.04296875 C-10.26113281 -0.32011719 -9.41679688 -0.59726563 -8.546875 -0.8828125 C-7.77182617 -1.14465332 -6.99677734 -1.40649414 -6.19824219 -1.67626953 C-3.48450184 -2.07591632 -2.28918611 -1.42732122 0 0 Z " fill="#A67884" transform="translate(101,112)"/>
<path d="M0 0 C2.31 0 4.62 0 7 0 C7 10.56 7 21.12 7 32 C6.67 32 6.34 32 6 32 C5.81824219 30.7934375 5.63648437 29.586875 5.44921875 28.34375 C5.19575578 26.72909702 4.94182447 25.11451751 4.6875 23.5 C4.56955078 22.70851563 4.45160156 21.91703125 4.33007812 21.1015625 C3.68937346 17.09305129 2.88230152 13.41444903 1.40625 9.625 C0.03237968 6.08346761 -0.28108328 3.74777708 0 0 Z " fill="#8C6C81" transform="translate(121,0)"/>
<path d="M0 0 C0.66 0 1.32 0 2 0 C2.14695312 0.67804687 2.29390625 1.35609375 2.4453125 2.0546875 C4.11142754 8.96810737 6.33126754 15.50294404 11 21 C13.58474464 22.30100634 13.58474464 22.30100634 16 23 C15.649375 22.401875 15.29875 21.80375 14.9375 21.1875 C14 19 14 19 15 16 C18 19.75 18 19.75 18 22 C18.56283691 21.93941406 19.12567383 21.87882812 19.70556641 21.81640625 C30.84402575 20.63605189 41.7871138 19.66078664 53 20 C53 20.33 53 20.66 53 21 C48.94808413 21.43529153 44.89536534 21.86210831 40.84179688 22.28173828 C39.46851682 22.42502871 38.09545887 22.57046722 36.72265625 22.71826172 C12.62957549 25.30721119 12.62957549 25.30721119 9.00561523 22.40014648 C7.33817951 20.36499346 6.17612772 18.35225544 5 16 C4.60167969 15.24460937 4.20335937 14.48921875 3.79296875 13.7109375 C1.57567754 9.15099586 0.42915235 5.04254006 0 0 Z " fill="#7F656E" transform="translate(11,29)"/>
<path d="M0 0 C0.33 0 0.66 0 1 0 C1.09938156 5.55007795 1.1717096 11.09963018 1.21972656 16.65039062 C1.23975767 18.53589916 1.26699073 20.42134623 1.30175781 22.30664062 C1.35065272 25.02749862 1.37305382 27.74753056 1.390625 30.46875 C1.41127014 31.30241089 1.43191528 32.13607178 1.45318604 32.99499512 C1.45546015 39.01836693 0.02434855 42.78849281 -3 48 C-4.32 47.67 -5.64 47.34 -7 47 C-5.625 45 -5.625 45 -4 43 C-3.34 43 -2.68 43 -2 43 C-2.01047363 42.40799805 -2.02094727 41.81599609 -2.03173828 41.20605469 C-2.24313073 27.31837349 -1.69125959 13.78678574 0 0 Z " fill="#957587" transform="translate(83,0)"/>
<path d="M0 0 C2 3 2 3 2 5 C2.99 5 3.98 5 5 5 C6.36217703 9.9946491 7.29938543 14.76445505 7.75390625 19.921875 C8.00171802 22.01450769 8.44646861 23.96886003 9 26 C12.24849977 24.27773504 12.24849977 24.27773504 13 21 C13.66 21 14.32 21 15 21 C15 22.98 15 24.96 15 27 C12.69 27.33 10.38 27.66 8 28 C4.82098358 23.45987977 3.647256 18.73216654 2.3125 13.4375 C2.08755859 12.58736328 1.86261719 11.73722656 1.63085938 10.86132812 C0.6452189 7.04159679 0 3.98851061 0 0 Z " fill="#896E78" transform="translate(94,15)"/>
<path d="M0 0 C0.515625 0.268125 1.03125 0.53625 1.5625 0.8125 C4.66401415 2.32349407 7.82262806 3.65572726 11 5 C11 5.66 11 6.32 11 7 C7.31912647 9.45391569 4.55644412 9.22802759 0.3125 9.125 C-0.7403418 9.11146484 -0.7403418 9.11146484 -1.81445312 9.09765625 C-3.54311525 9.07413704 -5.27160145 9.03826713 -7 9 C-6.20207031 8.22269531 -5.40414062 7.44539063 -4.58203125 6.64453125 C-2.38742749 4.39680547 -1.16250245 2.8534151 0 0 Z " fill="#B997A0" transform="translate(106,119)"/>
<path d="M0 0 C-0.30798326 1.48011371 -0.621518 2.95907325 -0.9375 4.4375 C-1.11152344 5.26121094 -1.28554688 6.08492188 -1.46484375 6.93359375 C-2 9 -2 9 -3 10 C-4.66617115 10.04063832 -6.33388095 10.042721 -8 10 C-9.4606285 7.35261084 -10 6.10551666 -10 3 C-12.33075929 3.95865509 -12.33075929 3.95865509 -14 7 C-13.8125 4.625 -13.8125 4.625 -13 2 C-8.91343412 -0.60054192 -4.67631878 -0.15851928 0 0 Z " fill="#F0C5DA" transform="translate(31,70)"/>
<path d="M0 0 C1.60711694 2.87471361 2.30915828 5.17575627 2.59765625 8.44921875 C2.67693359 9.29806641 2.75621094 10.14691406 2.83789062 11.02148438 C2.91201172 11.90126953 2.98613281 12.78105469 3.0625 13.6875 C3.21958387 15.42061542 3.37713316 17.15368872 3.53515625 18.88671875 C3.61008301 19.73153809 3.68500977 20.57635742 3.76220703 21.44677734 C4.12147203 25.30426534 4.55933743 29.15102689 5 33 C2.53051758 31.42089844 2.53051758 31.42089844 0 29 C-0.56762695 25.88378906 -0.56762695 25.88378906 -0.48828125 22.265625 C-0.47216797 20.97011719 -0.45605469 19.67460938 -0.43945312 18.33984375 C-0.39767939 16.97654572 -0.3553547 15.61326448 -0.3125 14.25 C-0.2874091 12.87113376 -0.26459729 11.49222403 -0.24414062 10.11328125 C-0.18518617 6.74108644 -0.10293171 3.37109259 0 0 Z " fill="#AA879A" transform="translate(0,20)"/>
<path d="M0 0 C2 1 2 1 2.78125 3.03125 C3.26041667 4.67708333 3.73958333 6.32291667 4.21875 7.96875 C4.80935836 10.18562475 4.80935836 10.18562475 7 11 C7.4140625 12.8125 7.4140625 12.8125 7.625 15 C7.69976562 15.721875 7.77453125 16.44375 7.8515625 17.1875 C7.92819083 18.12317224 8 19.06119521 8 20 C8.66 20 9.32 20 10 20 C10.66 21.98 11.32 23.96 12 26 C10.68 25.67 9.36 25.34 8 25 C8 24.34 8 23.68 8 23 C7.34 23 6.68 23 6 23 C3.83067163 18.87328914 2.14573596 14.82260639 0.75 10.375 C0.39421875 9.26898438 0.0384375 8.16296875 -0.328125 7.0234375 C-0.97298195 4.12158122 -1.03874084 2.730024 0 0 Z " fill="#997A8D" transform="translate(29,16)"/>
<path d="M0 0 C2.4375 0.125 2.4375 0.125 5 1 C6.59660706 3.88909849 7 5.69058796 7 9 C7.66 9.33 8.32 9.66 9 10 C8.34 10 7.68 10 7 10 C6.938125 10.5775 6.87625 11.155 6.8125 11.75 C5.67972699 14.88690987 3.65802405 16.09167504 1 18 C0.34 17.67 -0.32 17.34 -1 17 C0.32 15.68 1.64 14.36 3 13 C2.484375 12.0925 1.96875 11.185 1.4375 10.25 C-0.07116812 6.83909817 -0.06527892 6.31420108 1 3 C0.34 2.34 -0.32 1.68 -1 1 C-0.67 0.67 -0.34 0.34 0 0 Z " fill="#794B5B" transform="translate(99,109)"/>
<path d="M0 0 C0.33 0 0.66 0 1 0 C1 3.3 1 6.6 1 10 C0.01 10 -0.98 10 -2 10 C-2.66 10.66 -3.32 11.32 -4 12 C-4 9.69 -4 7.38 -4 5 C-5.58323688 4.972807 -7.16661062 4.95351694 -8.75 4.9375 C-9.63171875 4.92589844 -10.5134375 4.91429688 -11.421875 4.90234375 C-13.7818838 4.99173802 -15.74498524 5.33087179 -18 6 C-18.33 4.68 -18.66 3.36 -19 2 C-15.04 2.33 -11.08 2.66 -7 3 C-7 2.34 -7 1.68 -7 1 C-5.5459375 1.0309375 -5.5459375 1.0309375 -4.0625 1.0625 C-1.12534105 1.35618499 -1.12534105 1.35618499 0 0 Z " fill="#9F5878" transform="translate(37,66)"/>
<path d="M0 0 C2.31 0 4.62 0 7 0 C8.125 7.75 8.125 7.75 7 10 C6.01 9.34 5.02 8.68 4 8 C4.99 10.97 5.98 13.94 7 17 C2.94903704 13.64747893 1.32886495 9.97093927 0 5 C-0.1875 2 -0.1875 2 0 0 Z " fill="#9A627D" transform="translate(10,69)"/>
<path d="M0 0 C-0.5625 3.375 -0.5625 3.375 -2 7 C-5.5625 8.25 -5.5625 8.25 -9 9 C-9.33 9.99 -9.66 10.98 -10 12 C-10.28780387 8.94927903 -10.43137565 6.04119836 -10 3 C-6.8602918 0.0397037 -4.22507858 -0.36214959 0 0 Z " fill="#553543" transform="translate(95,52)"/>
<path d="M0 0 C2 1 2 1 2.8515625 3.29296875 C5.41470311 12.88532831 5.41470311 12.88532831 5 18 C3.35 18.33 1.7 18.66 0 19 C0 12.73 0 6.46 0 0 Z " fill="#F1D8E0" transform="translate(88,0)"/>
<path d="M0 0 C1.68302839 3.36605678 2.9360172 6.50876252 4.125 10.0625 C4.47820313 11.10535156 4.83140625 12.14820313 5.1953125 13.22265625 C6 16 6 16 6 19 C5.01 19 4.02 19 3 19 C2.67 18.34 2.34 17.68 2 17 C1.67 19.31 1.34 21.62 1 24 C0.67 24 0.34 24 0 24 C0 16.08 0 8.16 0 0 Z " fill="#EBD5D8" transform="translate(5,13)"/>
<path d="M0 0 C1.32 0 2.64 0 4 0 C4.33 1.32 4.66 2.64 5 4 C5.99 3.01 6.98 2.02 8 1 C9 2 9 2 9.0625 4.5625 C9.041875 5.366875 9.02125 6.17125 9 7 C6.69 7.33 4.38 7.66 2 8 C2 7.34 2 6.68 2 6 C0.35 6.66 -1.3 7.32 -3 8 C-1.125 1.125 -1.125 1.125 0 0 Z " fill="#FDD7EA" transform="translate(106,64)"/>
<path d="M0 0 C0.66 0 1.32 0 2 0 C2.11069824 0.54414551 2.22139648 1.08829102 2.33544922 1.64892578 C2.84482619 4.14174567 3.35986694 6.6333635 3.875 9.125 C4.04902344 9.9809375 4.22304687 10.836875 4.40234375 11.71875 C5.16244003 15.37847282 5.94243634 18.83784356 7.1953125 22.3671875 C8.0360847 25.11806354 8.01803778 26.35310178 7 29 C6.34838988 27.12699975 5.70397805 25.2514945 5.0625 23.375 C4.70285156 22.33085937 4.34320312 21.28671875 3.97265625 20.2109375 C3.04249877 17.14029714 2.45253692 14.172522 2 11 C1.67 13.97 1.34 16.94 1 20 C0.67 20 0.34 20 0 20 C0 13.4 0 6.8 0 0 Z " fill="#654556" transform="translate(3,0)"/>
<path d="M0 0 C2.95514876 2.75134539 5.1524809 5.39733775 7 9 C7 9.99 7 10.98 7 12 C3.55169199 11.712641 2.23781351 11.23781351 -0.25 8.75 C-1.97676682 6.03650929 -2.63831913 4.16470757 -3 1 C-2.01 0.67 -1.02 0.34 0 0 Z " fill="#B498A3" transform="translate(20,40)"/>
<path d="M0 0 C0.66 0 1.32 0 2 0 C0.125 3.875 0.125 3.875 -1 5 C-3.34987262 5.23527773 -5.70556039 5.41386417 -8.0625 5.5625 C-9.35285156 5.64628906 -10.64320312 5.73007813 -11.97265625 5.81640625 C-12.97167969 5.87699219 -13.97070312 5.93757813 -15 6 C-15.66 4.68 -16.32 3.36 -17 2 C-15.63875 2.0309375 -15.63875 2.0309375 -14.25 2.0625 C-11.18409562 2.14458496 -11.18409562 2.14458496 -9.0625 1.4375 C-5.93827354 0.7747853 -3.114069 1.46102652 0 2 C0 1.34 0 0.68 0 0 Z " fill="#8E676B" transform="translate(69,93)"/>
<path d="M0 0 C9.23076923 0.76923077 9.23076923 0.76923077 12 4 C12.25 6.6875 12.25 6.6875 12 9 C11.67 8.01 11.34 7.02 11 6 C8.36 6 5.72 6 3 6 C2.67 6.66 2.34 7.32 2 8 C1.34 7.34 0.68 6.68 0 6 C0.29369827 4.65737935 0.6278958 3.32303717 1 2 C0.67 1.34 0.34 0.68 0 0 Z " fill="#5B3C44" transform="translate(25,60)"/>
<path d="M0 0 C3.1875 -0.3125 3.1875 -0.3125 7 0 C9.9375 2.5 9.9375 2.5 12 5 C6.06 5.495 6.06 5.495 0 6 C0 4.02 0 2.04 0 0 Z " fill="#583240" transform="translate(101,52)"/>
<path d="M0 0 C1.32 0 2.64 0 4 0 C4 6.6 4 13.2 4 20 C3.67 20 3.34 20 3 20 C2.49550598 17.41747107 1.99625699 14.83411297 1.5 12.25 C1.35691406 11.52039062 1.21382813 10.79078125 1.06640625 10.0390625 C0.41111121 6.60656468 0 3.50830509 0 0 Z " fill="#9C7B91" transform="translate(124,0)"/>
<path d="M0 0 C2.375 -0.1875 2.375 -0.1875 5 0 C5.66 0.99 6.32 1.98 7 3 C6.34 3 5.68 3 5 3 C5.33 4.98 5.66 6.96 6 9 C4.68 8.34 3.36 7.68 2 7 C1.67 8.32 1.34 9.64 1 11 C-1.125 3.375 -1.125 3.375 0 0 Z " fill="#9D5D79" transform="translate(86,61)"/>
<path d="M0 0 C-2.27575921 2.53187359 -4.51979208 3.88121588 -7.5625 5.375 C-10.60125299 7.01049144 -11.80648124 7.67994975 -13.625 10.6875 C-14.23427015 13.01864219 -14.23427015 13.01864219 -13 15 C-13.99 14.67 -14.98 14.34 -16 14 C-16.45389747 10.65157601 -16.39275781 8.10847396 -15 5 C-4.41647597 -2.20823799 -4.41647597 -2.20823799 0 0 Z " fill="#754654" transform="translate(123,101)"/>
<path d="M0 0 C1.66611905 -0.042721 3.33382885 -0.04063832 5 0 C6 1 6 1 6.0625 4.5625 C6.041875 5.696875 6.02125 6.83125 6 8 C4.125 8.625 4.125 8.625 2 9 C0 7 0 7 -0.125 3.375 C-0.08375 2.26125 -0.0425 1.1475 0 0 Z " fill="#FBC4E4" transform="translate(97,61)"/>
<path d="M0 0 C0.33 1.65 0.66 3.3 1 5 C-4.625 7.125 -4.625 7.125 -8 6 C-7.6875 4.125 -7.6875 4.125 -7 2 C-4 0 -4 0 0 0 Z " fill="#5F3644" transform="translate(21,61)"/>
<path d="M0 0 C2 3 2 3 2 5 C2.99 5 3.98 5 5 5 C5.33 10.28 5.66 15.56 6 21 C3.79669682 17.69504523 2.95561629 14.87667528 1.875 11.0625 C1.52179688 9.83660156 1.16859375 8.61070313 0.8046875 7.34765625 C0 4 0 4 0 0 Z " fill="#785E67" transform="translate(94,15)"/>
<path d="M0 0 C-0.66 0.66 -1.32 1.32 -2 2 C-3.32 2 -4.64 2 -6 2 C-6.33 2.99 -6.66 3.98 -7 5 C-4.03 5.495 -4.03 5.495 -1 6 C-1 6.33 -1 6.66 -1 7 C-2.79158489 7.02696365 -4.58328473 7.04637917 -6.375 7.0625 C-7.37273437 7.07410156 -8.37046875 7.08570312 -9.3984375 7.09765625 C-12 7 -12 7 -14 6 C-14 5.34 -14 4.68 -14 4 C-12.02 3.67 -10.04 3.34 -8 3 C-8 2.34 -8 1.68 -8 1 C-5.07175348 0.02391783 -3.04386724 -0.08226668 0 0 Z " fill="#9C6D79" transform="translate(86,115)"/>
<path d="M0 0 C5.05255964 0.63156995 9.29593201 2.13459373 14 4 C14 4.33 14 4.66 14 5 C4.61452514 6.40782123 4.61452514 6.40782123 2 5 C0.75 2.4375 0.75 2.4375 0 0 Z " fill="#4D2E3A" transform="translate(110,118)"/>
<path d="M0 0 C0.66 0 1.32 0 2 0 C2 0.66 2 1.32 2 2 C2.99 2.33 3.98 2.66 5 3 C4.67 3.66 4.34 4.32 4 5 C5.32 5.33 6.64 5.66 8 6 C8.33 7.32 8.66 8.64 9 10 C10.32 10.33 11.64 10.66 13 11 C13 11.66 13 12.32 13 13 C6.90181607 10.90919408 2.90554403 7.81108807 0 2 C0 1.34 0 0.68 0 0 Z " fill="#EBC4CC" transform="translate(10,98)"/>
<path d="M0 0 C0.33 0 0.66 0 1 0 C1.107834 2.93847653 1.18721916 5.87301151 1.25 8.8125 C1.28351563 9.64587891 1.31703125 10.47925781 1.3515625 11.33789062 C1.37089844 12.54155273 1.37089844 12.54155273 1.390625 13.76953125 C1.4220459 14.87711792 1.4220459 14.87711792 1.45410156 16.00708008 C1 18 1 18 -3 21 C-2.01 14.07 -1.02 7.14 0 0 Z " fill="#765E5F" transform="translate(127,43)"/>
<path d="M0 0 C-0.99 0.66 -1.98 1.32 -3 2 C-2.67 3.32 -2.34 4.64 -2 6 C-3.65 6.33 -5.3 6.66 -7 7 C-7.12375 6.195625 -7.2475 5.39125 -7.375 4.5625 C-7.684375 3.2940625 -7.684375 3.2940625 -8 2 C-8.66 1.67 -9.32 1.34 -10 1 C-6.52674819 -0.1577506 -3.63932552 -0.06866652 0 0 Z " fill="#D2BAC3" transform="translate(29,59)"/>
<path d="M0 0 C2.67927341 4.01891012 2.15601248 6.24161923 2 11 C1.01 11.33 0.02 11.66 -1 12 C-2.11445498 9.77109005 -2.16480286 8.46944894 -2.1875 6 C-2.20167969 5.29875 -2.21585937 4.5975 -2.23046875 3.875 C-2 2 -2 2 0 0 Z " fill="#B092A3" transform="translate(104,29)"/>
<path d="M0 0 C1.65 0 3.3 0 5 0 C5 3.3 5 6.6 5 10 C4.01 10 3.02 10 2 10 C1.34 6.7 0.68 3.4 0 0 Z " fill="#9D7C92" transform="translate(23,0)"/>
<path d="M0 0 C1.87184371 3.74368742 2.23999767 4.8400791 2.125 8.75 C2.10695313 9.54921875 2.08890625 10.3484375 2.0703125 11.171875 C2.03550781 12.07679687 2.03550781 12.07679687 2 13 C0.35 13.33 -1.3 13.66 -3 14 C-2.01 9.38 -1.02 4.76 0 0 Z " fill="#896B7A" transform="translate(123,28)"/>
<path d="M0 0 C0.33 0.66 0.66 1.32 1 2 C3.12576782 2.46651207 3.12576782 2.46651207 5.5625 2.625 C6.38878906 2.69976562 7.21507813 2.77453125 8.06640625 2.8515625 C8.70449219 2.90054688 9.34257813 2.94953125 10 3 C10 3.66 10 4.32 10 5 C5.38 5 0.76 5 -4 5 C-3.67 4.34 -3.34 3.68 -3 3 C-2.34 3 -1.68 3 -1 3 C-0.67 2.01 -0.34 1.02 0 0 Z " fill="#8A727F" transform="translate(118,123)"/>
<path d="M0 0 C0.99 0 1.98 0 3 0 C3.3690205 10.55808656 3.3690205 10.55808656 1 15 C0.67 15 0.34 15 0 15 C0 10.05 0 5.1 0 0 Z " fill="#896C78" transform="translate(84,0)"/>
<path d="M0 0 C3.3502463 3.81234923 5.16974789 7.33285711 7 12 C6.01 12.495 6.01 12.495 5 13 C4.54625 12.175 4.0925 11.35 3.625 10.5 C3.08875 9.675 2.5525 8.85 2 8 C1.34 8 0.68 8 0 8 C-1.125 2.25 -1.125 2.25 0 0 Z " fill="#957484" transform="translate(24,38)"/>
<path d="M0 0 C2.97 0.495 2.97 0.495 6 1 C6.33 2.65 6.66 4.3 7 6 C6.67 5.01 6.34 4.02 6 3 C4.04105639 3.11306697 4.04105639 3.11306697 2 4 C0.70339566 6.49034386 0.70339566 6.49034386 0 9 C-0.66 8.67 -1.32 8.34 -2 8 C-1.34 5.36 -0.68 2.72 0 0 Z " fill="#E5AAC8" transform="translate(104,61)"/>
<path d="M0 0 C0.66 0.66 1.32 1.32 2 2 C4.58354218 2.16687448 4.58354218 2.16687448 7 2 C7.33 1.34 7.66 0.68 8 0 C8.33 0.99 8.66 1.98 9 3 C6.4345406 5.5654594 4.52313332 5.54046087 1 6 C0.67 6.99 0.34 7.98 0 9 C0 6.03 0 3.06 0 0 Z " fill="#6B3C52" transform="translate(85,55)"/>
<path d="M0 0 C0.99 0 1.98 0 3 0 C3 3.63 3 7.26 3 11 C1.35 10.67 -0.3 10.34 -2 10 C-1.34 9.67 -0.68 9.34 0 9 C0 6.03 0 3.06 0 0 Z " fill="#A88B99" transform="translate(125,32)"/>
<path d="M0 0 C0.99 0.66 1.98 1.32 3 2 C2.67 4.31 2.34 6.62 2 9 C1.34 9 0.68 9 0 9 C0 8.34 0 7.68 0 7 C-0.99 6.67 -1.98 6.34 -3 6 C-2 3 -2 3 0 0 Z " fill="#E6C4D4" transform="translate(35,74)"/>
<path d="M0 0 C3.875 0.875 3.875 0.875 5 2 C5.04063832 3.66617115 5.042721 5.33388095 5 7 C3.35 6.67 1.7 6.34 0 6 C0 4.02 0 2.04 0 0 Z " fill="#FCBFDC" transform="translate(23,70)"/>
<path d="M0 0 C0 0.33 0 0.66 0 1 C-7.41834582 1.09377123 -14.66236293 1.17402193 -22 0 C-22 -0.33 -22 -0.66 -22 -1 C-14.24272966 -2.11032496 -7.62854246 -1.78540355 0 0 Z " fill="#C1AAB0" transform="translate(70,118)"/>
<path d="M0 0 C1.32 1.32 2.64 2.64 4 4 C3.67 4.66 3.34 5.32 3 6 C2.34 6 1.68 6 1 6 C1.515625 6.928125 2.03125 7.85625 2.5625 8.8125 C4 12 4 12 3 15 C-0.77755334 10.27805833 -0.30096975 5.74071928 0 0 Z " fill="#BD9E9A" transform="translate(0,73)"/>
<path d="M0 0 C0.66 0.33 1.32 0.66 2 1 C2.6328125 3.28515625 2.6328125 3.28515625 3.125 6.0625 C3.29257812 6.98160156 3.46015625 7.90070312 3.6328125 8.84765625 C3.75398438 9.55792969 3.87515625 10.26820312 4 11 C3.01 10.67 2.02 10.34 1 10 C0.234375 7.96875 0.234375 7.96875 -0.25 5.5 C-0.42015625 4.6853125 -0.5903125 3.870625 -0.765625 3.03125 C-0.84296875 2.3609375 -0.9203125 1.690625 -1 1 C-0.67 0.67 -0.34 0.34 0 0 Z " fill="#A08194" transform="translate(29,16)"/>
<path d="M0 0 C0.66 0.33 1.32 0.66 2 1 C2 2.65 2 4.3 2 6 C-0.31 6.33 -2.62 6.66 -5 7 C-3.88820837 3.66462511 -2.52588702 2.36292656 0 0 Z " fill="#F1CBDB" transform="translate(113,65)"/>
<path d="M0 0 C0.33 0 0.66 0 1 0 C1 3.63 1 7.26 1 11 C0.01 11 -0.98 11 -2 11 C-2.28571429 3.57142857 -2.28571429 3.57142857 0 0 Z " fill="#A07C8B" transform="translate(127,114)"/>
<path d="M0 0 C4.29 0.66 8.58 1.32 13 2 C8.78370866 4.10814567 6.60209225 4.17700355 2 4 C1.34 2.68 0.68 1.36 0 0 Z " fill="#865B60" transform="translate(52,95)"/>
<path d="M0 0 C0.99 0.33 1.98 0.66 3 1 C3.625 3.3125 3.625 3.3125 4 6 C3.01 7.485 3.01 7.485 2 9 C-1.07692308 4.56923077 -1.07692308 4.56923077 -0.6875 1.6875 C-0.460625 1.130625 -0.23375 0.57375 0 0 Z " fill="#E9C8D2" transform="translate(88,68)"/>
<path d="M0 0 C2 2 2 2 2.125 5.125 C2.08375 6.07375 2.0425 7.0225 2 8 C-1.3 8 -4.6 8 -8 8 C-4 6 -4 6 0 6 C0 4.02 0 2.04 0 0 Z " fill="#8C6B79" transform="translate(70,120)"/>
<path d="M0 0 C0.99 0 1.98 0 3 0 C4.421875 1.6796875 4.421875 1.6796875 5.75 3.875 C6.19859375 4.59429687 6.6471875 5.31359375 7.109375 6.0546875 C7.40328125 6.69664063 7.6971875 7.33859375 8 8 C7.67 8.66 7.34 9.32 7 10 C5.68 9.34 4.36 8.68 3 8 C3 6.35 3 4.7 3 3 C2.34 3 1.68 3 1 3 C0.67 2.01 0.34 1.02 0 0 Z " fill="#654754" transform="translate(5,95)"/>
<path d="M0 0 C0.66 0 1.32 0 2 0 C1.49287967 3.71888239 0.88391785 6.73454239 -1 10 C-2.32 9.67 -3.64 9.34 -5 9 C-3.625 7 -3.625 7 -2 5 C-1.34 5 -0.68 5 0 5 C0 3.35 0 1.7 0 0 Z " fill="#80646D" transform="translate(81,38)"/>
<path d="M0 0 C1.27118864 0.79109602 2.54193623 1.58290078 3.8125 2.375 C4.52019531 2.81585938 5.22789063 3.25671875 5.95703125 3.7109375 C7.65432039 4.78188476 9.33014358 5.88676239 11 7 C8.36 7 5.72 7 3 7 C3 5.68 3 4.36 3 3 C2.01 3 1.02 3 0 3 C0 2.01 0 1.02 0 0 Z " fill="#623F51" transform="translate(13,105)"/>
<path d="M0 0 C2 2 2 2 2.125 4.625 C2.08375 5.40875 2.0425 6.1925 2 7 C2.66 7.33 3.32 7.66 4 8 C2.35 8.33 0.7 8.66 -1 9 C-1.09765625 2.84765625 -1.09765625 2.84765625 -1 1 C-0.67 0.67 -0.34 0.34 0 0 Z " fill="#FAE2E7" transform="translate(89,10)"/>
<path d="M0 0 C0.33 0 0.66 0 1 0 C1 3.3 1 6.6 1 10 C-0.32 9.67 -1.64 9.34 -3 9 C-2.44271087 5.65626525 -1.64826111 2.96687001 0 0 Z " fill="#8E5870" transform="translate(37,66)"/>
<path d="M0 0 C1.32 0 2.64 0 4 0 C4 1.65 4 3.3 4 5 C2.35 5 0.7 5 -1 5 C-0.67 3.35 -0.34 1.7 0 0 Z " fill="#F7E3EC" transform="translate(96,52)"/>
<path d="M0 0 C0.66 0 1.32 0 2 0 C2.66 1.32 3.32 2.64 4 4 C3.01 5.485 3.01 5.485 2 7 C1.01 7 0.02 7 -1 7 C-1.04254356 5.00045254 -1.04080783 2.99958364 -1 1 C-0.67 0.67 -0.34 0.34 0 0 Z " fill="#FAD6E5" transform="translate(94,67)"/>
<path d="M0 0 C0.33 1.32 0.66 2.64 1 4 C1.99 4 2.98 4 4 4 C3.67 4.99 3.34 5.98 3 7 C3.66 7.66 4.32 8.32 5 9 C3.35 9 1.7 9 0 9 C0 6.03 0 3.06 0 0 Z " fill="#B497A4" transform="translate(74,40)"/>
<path d="M0 0 C1.32 0.66 2.64 1.32 4 2 C3.34 2 2.68 2 2 2 C1.938125 2.5775 1.87625 3.155 1.8125 3.75 C0.67972699 6.88690987 -1.34197595 8.09167504 -4 10 C-4.66 9.67 -5.32 9.34 -6 9 C-4.4375 7.828125 -2.875 6.65625 -1.3125 5.484375 C0.44160248 3.8308053 0.44160248 3.8308053 0 0 Z " fill="#6B404F" transform="translate(104,117)"/>
<path d="M0 0 C0.66 0.33 1.32 0.66 2 1 C-0.52956528 4.0916909 -3.22454612 4.90931332 -7 6 C-7.66 5.34 -8.32 4.68 -9 4 C-7.54618103 3.30300448 -6.08677047 2.61766134 -4.625 1.9375 C-3.40683594 1.36322266 -3.40683594 1.36322266 -2.1640625 0.77734375 C-1.44992188 0.52082031 -0.73578125 0.26429687 0 0 Z " fill="#86515F" transform="translate(121,100)"/>
<path d="M0 0 C3.875 4.75 3.875 4.75 5 7 C3.35 7.33 1.7 7.66 0 8 C0 5.36 0 2.72 0 0 Z " fill="#705162" transform="translate(0,88)"/>
<path d="M0 0 C0 1.98 0 3.96 0 6 C-0.66 5.67 -1.32 5.34 -2 5 C-2 4.01 -2 3.02 -2 2 C-4.33075929 2.95865509 -4.33075929 2.95865509 -6 6 C-5.625 3.5625 -5.625 3.5625 -5 1 C-3 0 -3 0 0 0 Z " fill="#E1A7C4" transform="translate(23,71)"/>
<path d="M0 0 C1.670625 0.061875 1.670625 0.061875 3.375 0.125 C3.705 0.785 4.035 1.445 4.375 2.125 C2.065 2.125 -0.245 2.125 -2.625 2.125 C-2.955 2.785 -3.285 3.445 -3.625 4.125 C-4.285 3.465 -4.945 2.805 -5.625 2.125 C-3.625 0.125 -3.625 0.125 0 0 Z " fill="#6F3C50" transform="translate(30.625,63.875)"/>
<path d="M0 0 C0.66 0 1.32 0 2 0 C3.04449911 3.13349732 2.93423645 3.98968256 2 7 C0.68 6.67 -0.64 6.34 -2 6 C-2 3 -2 3 0 1 C0 0.67 0 0.34 0 0 Z " fill="#AA6F8C" transform="translate(112,55)"/>
<path d="M0 0 C0.66 0 1.32 0 2 0 C2 1.98 2 3.96 2 6 C0.68 6 -0.64 6 -2 6 C-1.34 4.02 -0.68 2.04 0 0 Z " fill="#FAD0EA" transform="translate(31,71)"/>
<path d="M0 0 C1.65 0 3.3 0 5 0 C5 1.32 5 2.64 5 4 C4.01 4.495 4.01 4.495 3 5 C3 4.34 3 3.68 3 3 C2.01 2.67 1.02 2.34 0 2 C0 1.34 0 0.68 0 0 Z " fill="#F8B5DC" transform="translate(97,61)"/>
<path d="M0 0 C0.99 0.99 1.98 1.98 3 3 C-2.94 3.495 -2.94 3.495 -9 4 C-8.67 3.01 -8.34 2.02 -8 1 C-6.865625 1.020625 -5.73125 1.04125 -4.5625 1.0625 C-1.18424326 1.41577477 -1.18424326 1.41577477 0 0 Z " fill="#6E3C52" transform="translate(110,54)"/>
<path d="M0 0 C0.99 0 1.98 0 3 0 C2.34 3.3 1.68 6.6 1 10 C0.67 10 0.34 10 0 10 C0 7.69 0 5.38 0 3 C-0.66 2.67 -1.32 2.34 -2 2 C-1.34 2 -0.68 2 0 2 C0 1.34 0 0.68 0 0 Z " fill="#B77295" transform="translate(33,68)"/>
<path d="M0 0 C2.52588702 2.36292656 3.88820837 3.66462511 5 7 C3.68 7 2.36 7 1 7 C0.67 4.69 0.34 2.38 0 0 Z " fill="#ECC9C8" transform="translate(0,83)"/>
<path d="M0 0 C2.475 0.495 2.475 0.495 5 1 C5.33 2.32 5.66 3.64 6 5 C3.03 4.505 3.03 4.505 0 4 C0 2.68 0 1.36 0 0 Z " fill="#EBBFD2" transform="translate(14,77)"/>
<path d="M0 0 C1.65 0 3.3 0 5 0 C4.34 2.31 3.68 4.62 3 7 C2.67 7 2.34 7 2 7 C1.34 4.69 0.68 2.38 0 0 Z " fill="#E6B0CB" transform="translate(26,70)"/>
<path d="M0 0 C0.25 2.3125 0.25 2.3125 0 5 C-2 6.8125 -2 6.8125 -4 8 C-3.74438677 5.6568787 -3.40729228 3.32156597 -3 1 C-1 0 -1 0 0 0 Z " fill="#927B7A" transform="translate(128,56)"/>
<path d="M0 0 C1.37562854 1.28965176 2.70766393 2.62689293 4 4 C4 4.66 4 5.32 4 6 C4.66 6 5.32 6 6 6 C6 6.66 6 7.32 6 8 C2.83884224 6.63016497 2.0072908 6.0109362 0 3 C0 2.01 0 1.02 0 0 Z " fill="#765966" transform="translate(25,45)"/>
<path d="M0 0 C0 0.66 0 1.32 0 2 C-1.98 2.99 -1.98 2.99 -4 4 C-5.32 3.01 -6.64 2.02 -8 1 C-5.07175348 0.02391783 -3.04386724 -0.08226668 0 0 Z " fill="#F3DBE1" transform="translate(95,20)"/>
<path d="M0 0 C1.64350079 3.28700157 2.41321669 5.47930015 3 9 C2.01 9.33 1.02 9.66 0 10 C0 6.7 0 3.4 0 0 Z " fill="#F3DCE5" transform="translate(5,13)"/>
<path d="M0 0 C1.32 0 2.64 0 4 0 C3.67 2.31 3.34 4.62 3 7 C0.64046906 4.64046906 0.50858587 3.22104383 0 0 Z " fill="#7B5D6B" transform="translate(89,0)"/>
</svg>
